<?xml version="1.0" encoding="utf-8"?>
<!-- Generator: Adobe Illustrator 22.0.1, SVG Export Plug-In . SVG Version: 6.00 Build 0)  -->
<svg version="1.1" id="Layer_1" xmlns="http://www.w3.org/2000/svg" xmlns:xlink="http://www.w3.org/1999/xlink" x="0px" y="0px"
	 viewBox="0 0 35.4 35.4" style="enable-background:new 0 0 35.4 35.4;" xml:space="preserve">
<style type="text/css">
	.st0{fill:#214E5B;}
	.st1{fill:#DCE0D1;}
</style>
<title>socialicons</title>
<path class="st0" d="M6.9,0h21.6c3.8,0,6.9,3.1,6.9,6.9v21.6c0,3.8-3.1,6.9-6.9,6.9H6.9c-3.8,0-6.9-3.1-6.9-6.9V6.9
	C0,3.1,3.1,0,6.9,0z"/>
<path class="st1" d="M30.1,10.7c0.3-0.9-0.2-1.8-1.1-2c-0.4-0.1-0.9-0.1-1.3,0.2c-0.5,0.3-1,0.5-1.6,0.7c-2.7-2.1-6.5-1.6-8.6,1.1
	c-0.6,0.8-1.1,1.8-1.2,2.9c-2.5-0.5-4.7-1.9-6.3-3.8C9.7,9.3,9.2,9.1,8.8,9.1H8.6c-0.5,0-1,0.3-1.3,0.8c-0.5,0.9-0.8,2-0.8,3.1
	c0,0.7,0.1,1.4,0.4,2.1c-0.3,0.3-0.4,0.7-0.4,1.1c0,1.5,0.6,3,1.6,4.2C8,20.7,8,21,8.1,21.2c0.3,1.1,1,2,1.8,2.8
	c-0.5,0.1-1.1,0.2-1.7,0.2c-0.3,0-0.6,0-0.9,0H7.2c-0.9,0-1.6,0.7-1.6,1.6c0,0.6,0.3,1.1,0.8,1.4c2.3,1.5,5,2.3,7.8,2.3
	c7.9,0.1,14.3-6.2,14.4-14.1c0-0.1,0-0.1,0-0.2c0.7-0.6,1.4-1.3,1.9-2.1c0.2-0.3,0.3-0.6,0.3-1C30.8,11.5,30.5,11,30.1,10.7z
	 M26.9,14.4c0,0.2,0,0.4,0,0.6c0,7.1-5.7,12.8-12.8,12.8c-2.4,0-4.8-0.7-6.9-2c0.4,0,0.7,0.1,1.1,0.1c2,0,4-0.7,5.6-1.9
	c-1.9,0-3.6-1.3-4.2-3.1c0.7,0.1,1.3,0.1,2-0.1c-2.1-0.4-3.6-2.3-3.6-4.4v-0.1c0.6,0.3,1.3,0.5,2,0.6c-2-1.3-2.6-3.9-1.4-6
	c2.3,2.8,5.7,4.5,9.3,4.7c-0.6-2.4,0.9-4.8,3.4-5.4c1.6-0.4,3.2,0.1,4.3,1.3c1-0.2,2-0.6,2.9-1.1c-0.3,1-1.1,1.9-2,2.5
	c0.9-0.1,1.8-0.4,2.6-0.7C28.5,12.9,27.8,13.7,26.9,14.4z"/>
</svg>
