<svg xmlns="http://www.w3.org/2000/svg" id="Layer_1" viewBox="0 0 35.4 35.4" width="35.4" height="35.4"><style>.st0{fill:#214e5b}.st1{fill:#dce0d1}</style><path d="M6.9 0h21.6c3.8 0 6.9 3.1 6.9 6.9v21.6c0 3.8-3.1 6.9-6.9 6.9H6.9c-3.8 0-6.9-3.1-6.9-6.9V6.9C0 3.1 3.1 0 6.9 0z" class="st0"/><path d="M15.2 31.6c-.4 0-.7-.3-.7-.7v-4.2c0-2.6 0-6.2-.1-8.7H12c-.4 0-.7-.3-.7-.8v-3.5c0-.4.3-.7.7-.7h1.8c0-.7.1-1.3.2-2 .1-.9.5-1.8 1-2.6.4-.6.9-1 1.5-1.3 1.2-.7 2.5-1 3.8-1 1.4 0 2.8.3 4.2.8.2.1.4.3.5.6v.4c0 .3 0 .6-.1.9 0 .3-.1.6-.2 1-.1.6-.3 1.1-.4 1.5v.6h-1.1c-.6-.2-1.2-.4-1.8-.4-.2 0-.4 0-.5.1-.1 0-.2.1-.3.2-.1.1-.1.2-.2.3-.1.2-.2.4-.2.6 0 .2-.1.5-.1.7h2.7c.2 0 .4.1.5.3.1.2.2.4.2.6v3.3c0 .4-.3.7-.7.7h-2.3c0 1.4 0 4.1.1 6.7v6c0 .4-.3.7-.7.7l-4.7-.1zm-2.6-15.1H15c.4 0 .7.3.7.7.1 2.5.2 6.5.2 9.4V30h3.2v-5.3c0-3.1-.1-6.5-.1-7.4 0-.4.3-.7.7-.8H22v-1.9h-2.7c-.4 0-.7-.2-.7-.6v-.2c0-.6 0-1.1.2-1.7.1-.5.3-.9.6-1.3.2-.3.5-.5.7-.6.4-.2.8-.3 1.3-.3s1.1.1 1.6.3l.1-.4c.1-.5.2-.9.3-1.3 0-.1 0-.3.1-.4-1-.4-2.1-.5-3.2-.6-1.1 0-2.1.2-3.1.8-.4.2-.8.6-1.1.9-.3.4-.5.8-.6 1.2-.3 1-.4 2.1-.4 3.2 0 .4-.3.7-.7.7h-1.9l.1 2.2z" class="st1"/><path d="M24.7 7.5c0-.2-.2-.3-.3-.4-1.3-.5-2.7-.8-4.1-.8-1.3 0-2.6.3-3.7.9-.6.4-1.1.8-1.5 1.4-.5.7-.9 1.6-1 2.5-.1.7-.2 1.4-.2 2.1h-2c-.3 0-.5.2-.5.5v3.5c0 .3.2.5.5.5h2.6c.1 2.4.1 6.1.1 8.9v4.2c0 .3.2.5.5.5h4.7c.3 0 .5-.2.5-.5v-6c0-2.7 0-5.6-.1-6.9h2.5c.3 0 .5-.2.5-.5V14c0-.2-.1-.3-.2-.4-.1-.1-.2-.2-.4-.2h-2.9c0-.3 0-.6.1-.9 0-.2.1-.4.2-.7.1-.1.1-.2.2-.3.1-.1.2-.2.4-.3.2-.1.4-.1.6-.1.6 0 1.3.2 1.9.4h.3c.1-.4.3-.9.5-1.6.1-.3.1-.6.2-.9.1-.3.1-.6.1-.9.3-.1.4-.4.5-.6zm-4.5 2.9c-.3.1-.5.3-.7.6-.3.4-.5.8-.6 1.3-.1.5-.2 1.1-.2 1.7v.2c0 .3.2.5.5.5h2.9V17h-2.5c-.3 0-.5.3-.5.5 0 .9 0 4.3.1 7.4v5.5h-3.6v-3.6c0-3 0-7-.2-9.4 0-.3-.2-.5-.5-.5h-2.6v-2.4h2c.3 0 .5-.2.5-.5 0-1.1.1-2.2.4-3.2.2-.5.4-.9.7-1.3.3-.4.7-.7 1.1-1 1-.5 2.1-.8 3.2-.8 1.2 0 2.3.2 3.4.6 0 .2 0 .4-.1.6-.1.4-.2.9-.3 1.3l-.2.6c-.5-.2-1.1-.3-1.7-.3-.2-.4-.7-.3-1.1-.1z" class="st1"/></svg>