<?xml version="1.0" encoding="utf-8"?>
<!-- Generator: Adobe Illustrator 22.0.1, SVG Export Plug-In . SVG Version: 6.00 Build 0)  -->
<svg version="1.1" id="Layer_1" xmlns="http://www.w3.org/2000/svg" xmlns:xlink="http://www.w3.org/1999/xlink" x="0px" y="0px"
	 viewBox="0 0 35.4 35.4" style="enable-background:new 0 0 35.4 35.4;" xml:space="preserve">
<style type="text/css">
	.st0{fill:#214E5B;}
	.st1{fill:#214E5B;stroke:#DCE0D1;stroke-width:1.6;stroke-miterlimit:10;}
	.st2{fill:none;stroke:#DCE0D1;stroke-width:1.6;stroke-linecap:round;stroke-miterlimit:10;}
	.st3{fill:none;stroke:#DCE0D1;stroke-width:1.71;stroke-linecap:round;stroke-miterlimit:10;}
</style>
<title>socialicons</title>
<path class="st0" d="M6.9,0h21.6c3.8,0,6.9,3.1,6.9,6.9v21.6c0,3.8-3.1,6.9-6.9,6.9H6.9c-3.8,0-6.9-3.1-6.9-6.9V6.9
	C0,3.1,3.1,0,6.9,0z"/>
<path class="st1" d="M11.5,6.2h12.4c2.9,0,5.3,2.4,5.3,5.3v12.4c0,2.9-2.4,5.3-5.3,5.3H11.5c-2.9,0-5.3-2.4-5.3-5.3V11.5
	C6.2,8.6,8.6,6.2,11.5,6.2z"/>
<circle class="st2" cx="17.7" cy="17.7" r="5.3"/>
<circle class="st3" cx="24.6" cy="11.3" r="0.8"/>
</svg>
