<svg xmlns="http://www.w3.org/2000/svg" id="Layer_1" viewBox="0 0 35.4 35.4" width="35.4" height="35.4"><style>.st0{fill:#214e5b}.st1{fill:#dce0d1}</style><path d="M6.9 0h21.6c3.8 0 6.9 3.1 6.9 6.9v21.6c0 3.8-3.1 6.9-6.9 6.9H6.9c-3.8 0-6.9-3.1-6.9-6.9V6.9C0 3.1 3.1 0 6.9 0z" class="st0"/><path d="M30.1 10.7c.3-.9-.2-1.8-1.1-2-.4-.1-.9-.1-1.3.2-.5.3-1 .5-1.6.7-2.7-2.1-6.5-1.6-8.6 1.1-.6.8-1.1 1.8-1.2 2.9-2.5-.5-4.7-1.9-6.3-3.8-.3-.5-.8-.7-1.2-.7h-.2c-.5 0-1 .3-1.3.8-.5.9-.8 2-.8 3.1 0 .7.1 1.4.4 2.1-.3.3-.4.7-.4 1.1 0 1.5.6 3 1.6 4.2-.1.3-.1.6 0 .8.3 1.1 1 2 1.8 2.8-.5.1-1.1.2-1.7.2h-1c-.9 0-1.6.7-1.6 1.6 0 .6.3 1.1.8 1.4 2.3 1.5 5 2.3 7.8 2.3 7.9.1 14.3-6.2 14.4-14.1v-.2c.7-.6 1.4-1.3 1.9-2.1.2-.3.3-.6.3-1 0-.6-.3-1.1-.7-1.4zm-3.2 3.7v.6c0 7.1-5.7 12.8-12.8 12.8-2.4 0-4.8-.7-6.9-2 .4 0 .7.1 1.1.1 2 0 4-.7 5.6-1.9-1.9 0-3.6-1.3-4.2-3.1.7.1 1.3.1 2-.1-2.1-.4-3.6-2.3-3.6-4.4v-.1c.6.3 1.3.5 2 .6-2-1.3-2.6-3.9-1.4-6 2.3 2.8 5.7 4.5 9.3 4.7-.6-2.4.9-4.8 3.4-5.4 1.6-.4 3.2.1 4.3 1.3 1-.2 2-.6 2.9-1.1-.3 1-1.1 1.9-2 2.5.9-.1 1.8-.4 2.6-.7-.7.7-1.4 1.5-2.3 2.2z" class="st1"/></svg>