<?xml version="1.0" encoding="utf-8"?>
<!-- Generator: Adobe Illustrator 22.0.1, SVG Export Plug-In . SVG Version: 6.00 Build 0)  -->
<svg version="1.1" id="Layer_1" xmlns="http://www.w3.org/2000/svg" xmlns:xlink="http://www.w3.org/1999/xlink" x="0px" y="0px"
	 viewBox="0 0 35.4 35.4" style="enable-background:new 0 0 35.4 35.4;" xml:space="preserve">
<style type="text/css">
	.st0{fill:#214E5B;}
	.st1{fill:#DCE0D1;}
</style>
<title>socialicons</title>
<path class="st0" d="M6.9,0h21.6c3.8,0,6.9,3.1,6.9,6.9v21.6c0,3.8-3.1,6.9-6.9,6.9H6.9c-3.8,0-6.9-3.1-6.9-6.9V6.9
	C0,3.1,3.1,0,6.9,0z"/>
<path class="st1" d="M15.2,31.6c-0.4,0-0.7-0.3-0.7-0.7c0,0,0,0,0,0v-1.2c0-0.8,0-1.8,0-3c0-2.6,0-6.2-0.1-8.7h-2.4
	c-0.4,0-0.7-0.3-0.7-0.8v-3.5c0-0.4,0.3-0.7,0.7-0.7c0,0,0,0,0,0h1.8c0-0.7,0.1-1.3,0.2-2c0.1-0.9,0.5-1.8,1-2.6
	c0.4-0.6,0.9-1,1.5-1.3c1.2-0.7,2.5-1,3.8-1c1.4,0,2.8,0.3,4.2,0.8c0.2,0.1,0.4,0.3,0.5,0.6c0,0.1,0,0.3,0,0.4c0,0.3,0,0.6-0.1,0.9
	c0,0.3-0.1,0.6-0.2,1c-0.1,0.6-0.3,1.1-0.4,1.5v0.1l0,0v0.1v0.1v0.1v0.1l0,0.1h0H24H24h-0.1h-0.1h-0.4h-0.1h-0.1
	c-0.6-0.2-1.2-0.4-1.8-0.4c-0.2,0-0.4,0-0.5,0.1c-0.1,0-0.2,0.1-0.3,0.2c-0.1,0.1-0.1,0.2-0.2,0.3c-0.1,0.2-0.2,0.4-0.2,0.6
	c0,0.2-0.1,0.5-0.1,0.7h2h0.3h0.2h0.2c0.2,0,0.4,0.1,0.5,0.3c0.1,0.2,0.2,0.4,0.2,0.6v3.3c0,0.4-0.3,0.7-0.7,0.7h-2.3
	c0,1.4,0,4.1,0.1,6.7c0,3.1,0,6,0,6c0,0.4-0.3,0.7-0.7,0.7c0,0,0,0,0,0L15.2,31.6z M12.6,16.5c0.8,0,1.8,0,2.4,0
	c0.4,0,0.7,0.3,0.7,0.7c0.1,2.5,0.2,6.5,0.2,9.4c0,1.5,0,2.7,0,3.4h3.2v-5.3c0-3.1-0.1-6.5-0.1-7.4c0-0.4,0.3-0.7,0.7-0.8
	c0.6,0,1.1,0,1.5,0h0.5H22v-1.9h-1h-1.3h-0.4c-0.4,0-0.7-0.2-0.7-0.6c0,0,0,0,0,0v-0.2c0-0.6,0-1.1,0.2-1.7c0.1-0.5,0.3-0.9,0.6-1.3
	c0.2-0.3,0.5-0.5,0.7-0.6c0.4-0.2,0.8-0.3,1.3-0.3c0.5,0,1.1,0.1,1.6,0.3l0.1-0.4c0.1-0.5,0.2-0.9,0.3-1.3c0-0.1,0-0.3,0.1-0.4
	c-1-0.4-2.1-0.5-3.2-0.6c-1.1,0-2.1,0.2-3.1,0.8c-0.4,0.2-0.8,0.6-1.1,0.9c-0.3,0.4-0.5,0.8-0.6,1.2c-0.3,1-0.4,2.1-0.4,3.2
	c0,0.4-0.3,0.7-0.7,0.7c-0.4,0-0.8,0-1.6,0h-0.3L12.6,16.5z"/>
<path class="st1" d="M24.7,7.5c0-0.2-0.2-0.3-0.3-0.4c-1.3-0.5-2.7-0.8-4.1-0.8c-1.3,0-2.6,0.3-3.7,0.9l0,0C16,7.6,15.5,8,15.1,8.6
	c-0.5,0.7-0.9,1.6-1,2.5c-0.1,0.7-0.2,1.4-0.2,2.1h-2c-0.3,0-0.5,0.2-0.5,0.5c0,0,0,0,0,0v3.5c0,0.3,0.2,0.5,0.5,0.5h0.4
	c0.5,0,1.5,0,2.2,0c0.1,2.4,0.1,6.1,0.1,8.9c0,1.2,0,2.2,0,3c0,0.4,0,0.7,0,0.9v0.3c0,0.3,0.2,0.5,0.5,0.5c0,0,0,0,0,0h4.7
	c0.3,0,0.5-0.2,0.5-0.5c0,0,0,0,0,0c0,0,0-2.9,0-6c0-2.7,0-5.6-0.1-6.9h2.5c0.3,0,0.5-0.2,0.5-0.5c0,0,0,0,0,0v-3.4
	c0-0.2-0.1-0.3-0.2-0.4c-0.1-0.1-0.2-0.2-0.4-0.2h-0.2c-0.1,0-0.3,0-0.5,0c-0.6,0-1.5,0-2.2,0c0-0.3,0-0.6,0.1-0.9
	c0-0.2,0.1-0.4,0.2-0.7c0.1-0.1,0.1-0.2,0.2-0.3c0.1-0.1,0.2-0.2,0.4-0.3c0.2-0.1,0.4-0.1,0.6-0.1c0.6,0,1.3,0.2,1.9,0.4h0.3l0,0
	l0,0l0,0l0,0l0,0l0,0l0,0l0,0l0,0l0,0l0,0c0.1-0.4,0.3-0.9,0.5-1.6c0.1-0.3,0.1-0.6,0.2-0.9c0.1-0.3,0.1-0.6,0.1-0.9
	C24.5,8,24.6,7.7,24.7,7.5z M20.2,10.4c-0.3,0.1-0.5,0.3-0.7,0.6c-0.3,0.4-0.5,0.8-0.6,1.3c-0.1,0.5-0.2,1.1-0.2,1.7
	c0,0.1,0,0.1,0,0.2c0,0.3,0.2,0.5,0.5,0.5c0,0,0,0,0,0c0.8,0,2,0,2.8,0h0.1v2.3c-0.3,0-0.6,0-1,0c-0.6,0-1.1,0-1.5,0
	c-0.3,0-0.5,0.3-0.5,0.5c0,0.9,0,4.3,0.1,7.4c0,1.6,0,3.1,0,4.2c0,0.5,0,1,0,1.3h-3.6c0-0.7,0-2,0-3.6c0-3,0-7-0.2-9.4
	c0-0.3-0.2-0.5-0.5-0.5c-0.7,0-1.9,0-2.6,0v-2.4h0.5c0.5,0,1.1,0,1.5,0c0.3,0,0.5-0.2,0.5-0.5c0-1.1,0.1-2.2,0.4-3.2
	c0.2-0.5,0.4-0.9,0.7-1.3c0.3-0.4,0.7-0.7,1.1-1l0,0c1-0.5,2.1-0.8,3.2-0.8c1.2,0,2.3,0.2,3.4,0.6c0,0.2,0,0.4-0.1,0.6
	c-0.1,0.4-0.2,0.9-0.3,1.3l-0.2,0.6c-0.5-0.2-1.1-0.3-1.7-0.3C21.1,10.1,20.6,10.2,20.2,10.4L20.2,10.4z"/>
</svg>
