<svg xmlns="http://www.w3.org/2000/svg" id="Layer_1" viewBox="0 0 35.4 35.4" width="35.4" height="35.4"><style>.st0,.st1{fill:#214e5b}.st1{stroke:#dce0d1;stroke-miterlimit:10}.st1,.st2{stroke-width:1.6}.st2,.st3{stroke:#dce0d1;stroke-miterlimit:10}.st2,.st3{fill:none;stroke-linecap:round}.st3{stroke-width:1.71}</style><path d="M6.9 0h21.6c3.8 0 6.9 3.1 6.9 6.9v21.6c0 3.8-3.1 6.9-6.9 6.9H6.9c-3.8 0-6.9-3.1-6.9-6.9V6.9C0 3.1 3.1 0 6.9 0z" class="st0"/><path d="M11.5 6.2h12.4c2.9 0 5.3 2.4 5.3 5.3v12.4c0 2.9-2.4 5.3-5.3 5.3H11.5c-2.9 0-5.3-2.4-5.3-5.3V11.5c0-2.9 2.4-5.3 5.3-5.3z" class="st1"/><circle cx="17.7" cy="17.7" r="5.3" class="st2"/><circle cx="24.6" cy="11.3" r=".8" class="st3"/></svg>