<svg id="Layer_1" data-name="Layer 1" xmlns="http://www.w3.org/2000/svg" width="172.2" height="27.3" viewBox="0 0 172.2 27.3"><title>logo</title><path d="M4.3,20.4a8.5,8.5,0,0,1-2.7-1.2l-.5-.6a1.9,1.9,0,0,1-.2-.8,1.3,1.3,0,0,1,.4-1,1.1,1.1,0,0,1,.9-.5h.5l.6.3a9.5,9.5,0,0,0,2.1.9,8.8,8.8,0,0,0,2.4.3,4.3,4.3,0,0,0,2.4-.5,1.6,1.6,0,0,0,.9-1.5,1.4,1.4,0,0,0-.8-1.2,13.1,13.1,0,0,0-2.8-.9,17.3,17.3,0,0,1-3.6-1.1,4.7,4.7,0,0,1-2-1.6,4.8,4.8,0,0,1-.6-2.4A4.4,4.4,0,0,1,2.2,6,5.9,5.9,0,0,1,4.6,4a9.9,9.9,0,0,1,3.5-.6,8.8,8.8,0,0,1,5.7,1.7,1.3,1.3,0,0,1,.5.6,1.4,1.4,0,0,1,.2.7,1.5,1.5,0,0,1-.4,1.1.9.9,0,0,1-.8.4h-.5l-.7-.4a10,10,0,0,0-1.8-.9,6.6,6.6,0,0,0-2.1-.3,4.3,4.3,0,0,0-2.4.6A1.8,1.8,0,0,0,5,8.4a1.7,1.7,0,0,0,.3,1,2.3,2.3,0,0,0,1.1.6l2.2.7a11.2,11.2,0,0,1,4.7,1.8,3.7,3.7,0,0,1,1.5,3.1,4.5,4.5,0,0,1-.9,2.8,5.5,5.5,0,0,1-2.4,1.8,8.6,8.6,0,0,1-3.6.7A13.6,13.6,0,0,1,4.3,20.4Z" fill="#f9f6f2"/><path d="M17.3,20.4a1.4,1.4,0,0,1-.5-1.3V5.2a1.4,1.4,0,0,1,.5-1.3,1.8,1.8,0,0,1,1.3-.4,1.8,1.8,0,0,1,1.3.4,1.4,1.4,0,0,1,.5,1.3V19.1a1.4,1.4,0,0,1-.5,1.3,1.8,1.8,0,0,1-1.3.4A1.8,1.8,0,0,1,17.3,20.4Z" fill="#f9f6f2"/><path d="M25.2,20.1A5.2,5.2,0,0,1,23,17.9a6.6,6.6,0,0,1-.8-3.2,6.7,6.7,0,0,1,.8-3.3,5.2,5.2,0,0,1,2.2-2.2,7.2,7.2,0,0,1,3.3-.7,7.4,7.4,0,0,1,3.4.7,5.2,5.2,0,0,1,2.2,2.2,6.7,6.7,0,0,1,.8,3.3,6.6,6.6,0,0,1-.8,3.2,5.2,5.2,0,0,1-2.2,2.2,7.4,7.4,0,0,1-3.4.8A7.3,7.3,0,0,1,25.2,20.1Zm6-5.4a3.7,3.7,0,0,0-.7-2.6,2.3,2.3,0,0,0-2-.9c-1.7,0-2.6,1.2-2.6,3.5s.9,3.4,2.6,3.4S31.2,16.9,31.2,14.7Z" fill="#f9f6f2"/><path d="M44.2,18.5a1,1,0,0,1,.4.9,1.3,1.3,0,0,1-.6,1.1,3.5,3.5,0,0,1-1.6.3h-.7c-2.8-.2-4.2-1.7-4.2-4.4V11.5h-1a1.6,1.6,0,0,1-1.2-.4,1.1,1.1,0,0,1-.4-1,1.2,1.2,0,0,1,.4-1,2.1,2.1,0,0,1,1.2-.3h1V6.9A1.7,1.7,0,0,1,38,5.6a1.9,1.9,0,0,1,1.3-.5,2.2,2.2,0,0,1,1.4.5,1.7,1.7,0,0,1,.5,1.3V8.8h1.6c1.1,0,1.7.4,1.7,1.3a1.1,1.1,0,0,1-.4,1,1.7,1.7,0,0,1-1.3.4H41.2v5.1a2,2,0,0,0,.3,1.1,1.3,1.3,0,0,0,1,.4h.7A2.3,2.3,0,0,1,44.2,18.5Z" fill="#f9f6f2"/><path d="M57.2,13.5v5.6a1.7,1.7,0,0,1-.5,1.2,1.5,1.5,0,0,1-1.3.5,1.6,1.6,0,0,1-1.4-.5,1.7,1.7,0,0,1-.5-1.2V13.4a2.1,2.1,0,0,0-.4-1.5,1.7,1.7,0,0,0-1.4-.6,2.2,2.2,0,0,0-1.8.8,2.4,2.4,0,0,0-.7,1.9v5.1a1.7,1.7,0,0,1-.5,1.2,1.5,1.5,0,0,1-1.3.5,1.6,1.6,0,0,1-1.4-.5,1.7,1.7,0,0,1-.5-1.2V5.1A1.7,1.7,0,0,1,46,3.9a2.1,2.1,0,0,1,1.4-.4,1.8,1.8,0,0,1,1.3.4,1.7,1.7,0,0,1,.5,1.2v5.2a4.4,4.4,0,0,1,1.6-1.4,5.6,5.6,0,0,1,2.3-.4C55.8,8.5,57.2,10.1,57.2,13.5Z" fill="#f9f6f2"/><path d="M68.6,20.3a6.9,6.9,0,0,1-2.7-1.4,1.1,1.1,0,0,1-.4-1,1.9,1.9,0,0,1,.2-.7.9.9,0,0,1,.6-.3l.8.3a8.1,8.1,0,0,0,5,1.6,5,5,0,0,0,2.9-.7A2.5,2.5,0,0,0,76.1,16a1.7,1.7,0,0,0-1-1.6,14,14,0,0,0-3.1-1,14.5,14.5,0,0,1-3.3-1,5.7,5.7,0,0,1-2.1-1.5,4.1,4.1,0,0,1-.7-2.5,4.2,4.2,0,0,1,.8-2.6A5.6,5.6,0,0,1,68.9,4a9,9,0,0,1,3.4-.6,7.8,7.8,0,0,1,3.1.5,6.8,6.8,0,0,1,2.5,1.4,1.4,1.4,0,0,1,.5,1,.9.9,0,0,1-.3.7.5.5,0,0,1-.5.3,1.3,1.3,0,0,1-.8-.3,12,12,0,0,0-2.1-1.2,6.1,6.1,0,0,0-2.4-.4,4.8,4.8,0,0,0-2.9.8,2.5,2.5,0,0,0-1.1,2.1,2.1,2.1,0,0,0,1,1.8,9.6,9.6,0,0,0,2.9,1l3.5,1a5.7,5.7,0,0,1,2.1,1.5,3.6,3.6,0,0,1,.8,2.3,4.7,4.7,0,0,1-.8,2.6,5.8,5.8,0,0,1-2.3,1.7,8.9,8.9,0,0,1-3.4.7A10.3,10.3,0,0,1,68.6,20.3Z" fill="#dce0d1"/><path d="M89.4,9.7a4.9,4.9,0,0,1,1.2,3.6v6.3a1.2,1.2,0,0,1-.3.9,1.4,1.4,0,0,1-.9.3,1.1,1.1,0,0,1-1.2-1.2v-.9a3.1,3.1,0,0,1-1.4,1.6,4.6,4.6,0,0,1-2.1.5,4.9,4.9,0,0,1-2.1-.4A3.4,3.4,0,0,1,81.1,19a3.1,3.1,0,0,1-.6-1.9,3.2,3.2,0,0,1,.7-2,3.8,3.8,0,0,1,2.2-1,22.6,22.6,0,0,1,4.2-.3h.6v-.7a2.7,2.7,0,0,0-.6-2,2.2,2.2,0,0,0-1.8-.6l-1.6.2-1.6.6a1.6,1.6,0,0,1-.9.4.6.6,0,0,1-.6-.3.9.9,0,0,1-.3-.7.9.9,0,0,1,.3-.6,1,1,0,0,1,.6-.5,9.3,9.3,0,0,1,2-.8l2.2-.3A4.6,4.6,0,0,1,89.4,9.7Zm-2.1,8.4a3.2,3.2,0,0,0,.9-2.3v-.7h-.4l-3,.2a2.6,2.6,0,0,0-1.4.6A1.2,1.2,0,0,0,83,17a2,2,0,0,0,.6,1.5,2.5,2.5,0,0,0,1.6.5A2.6,2.6,0,0,0,87.3,18.1Z" fill="#dce0d1"/><path d="M104.1,13.3v6.3a1.2,1.2,0,1,1-2.4,0V13.4a3.4,3.4,0,0,0-.6-2.2,2.6,2.6,0,0,0-1.9-.7,3,3,0,0,0-2.4,1,3.2,3.2,0,0,0-.9,2.4v5.7a1.1,1.1,0,0,1-1.2,1.2,1.6,1.6,0,0,1-.9-.3,1.2,1.2,0,0,1-.3-.9V9.8a1,1,0,0,1,.4-.9,1.1,1.1,0,0,1,.8-.3,1.2,1.2,0,0,1,.9.3,1.1,1.1,0,0,1,.3.8v1a4.1,4.1,0,0,1,1.6-1.6,4.8,4.8,0,0,1,2.4-.6Q104.1,8.5,104.1,13.3Z" fill="#dce0d1"/><path d="M109.1,20.1a4.8,4.8,0,0,1-2-2.2,6.3,6.3,0,0,1-.7-3.2,6.6,6.6,0,0,1,.7-3.2,5.6,5.6,0,0,1,2.1-2.2,6.1,6.1,0,0,1,3-.8,6.3,6.3,0,0,1,1.9.3,5.9,5.9,0,0,1,1.6.7,1.5,1.5,0,0,1,.8,1.3,1,1,0,0,1-.2.7l-.6.2h-.4l-.5-.3a4.5,4.5,0,0,0-1.2-.6l-1.2-.2a3.3,3.3,0,0,0-2.6,1.1,5,5,0,0,0-.9,3.1,4.8,4.8,0,0,0,.9,3.1,3.3,3.3,0,0,0,2.6,1.1,2.4,2.4,0,0,0,1.2-.3l1.2-.5.5-.3h.5a.7.7,0,0,1,.6.2,1.9,1.9,0,0,1,.2.7.8.8,0,0,1-.2.6l-.6.6-1.7.8-2,.2A6,6,0,0,1,109.1,20.1Z" fill="#dce0d1"/><path d="M124.9,19.2a.7.7,0,0,1,.3.6,1,1,0,0,1-.4.8l-1.1.2H123a4.3,4.3,0,0,1-2.9-1.2,4.6,4.6,0,0,1-1-3.1V10.7h-1.4c-.7,0-1.1-.3-1.1-.9a.9.9,0,0,1,.3-.7,1,1,0,0,1,.8-.3h1.4V6.3a.9.9,0,0,1,.4-.8,1.3,1.3,0,0,1,.9-.4,1.2,1.2,0,0,1,.8.4.9.9,0,0,1,.4.8V8.8H124a1.1,1.1,0,0,1,.8.3,1,1,0,0,1,0,1.4l-.8.2h-2.4v5.9a2.3,2.3,0,0,0,.5,1.7,2.6,2.6,0,0,0,1.4.6h.7A.8.8,0,0,1,124.9,19.2Z" fill="#dce0d1"/><path d="M136.6,8.9a1.2,1.2,0,0,1,.3.9v9.8a1.2,1.2,0,0,1-.3.9,1.6,1.6,0,0,1-.9.3,1.4,1.4,0,0,1-.9-.3,1.1,1.1,0,0,1-.3-.8v-1a3.9,3.9,0,0,1-1.5,1.6,4.2,4.2,0,0,1-2.2.5c-2.9,0-4.3-1.6-4.3-4.7V9.8a1.2,1.2,0,0,1,.3-.9,1.5,1.5,0,0,1,1.8,0,1.2,1.2,0,0,1,.3.9v6.3a3.3,3.3,0,0,0,.6,2.1,2.4,2.4,0,0,0,1.8.6,3,3,0,0,0,2.3-.9,3.2,3.2,0,0,0,.9-2.4V9.8a1.2,1.2,0,0,1,.3-.9,1.5,1.5,0,0,1,1.8,0Z" fill="#dce0d1"/><path d="M148.4,9.7a5.3,5.3,0,0,1,1.1,3.6v6.3a1.1,1.1,0,0,1-1.2,1.2,1.1,1.1,0,0,1-.8-.3,1.2,1.2,0,0,1-.3-.9v-.9a3.6,3.6,0,0,1-1.4,1.6,5.1,5.1,0,0,1-4.2.1A4.4,4.4,0,0,1,140,19a3.8,3.8,0,0,1-.5-1.9,2.7,2.7,0,0,1,.7-2,3.5,3.5,0,0,1,2.2-1,22.6,22.6,0,0,1,4.2-.3h.6v-.7a2.7,2.7,0,0,0-.6-2,2.4,2.4,0,0,0-1.8-.6l-1.6.2-1.6.6-1,.4a.9.9,0,0,1-.6-.3,1.4,1.4,0,0,1-.2-.7,1.4,1.4,0,0,1,.2-.6,1.8,1.8,0,0,1,.7-.5,9.3,9.3,0,0,1,2-.8,8.3,8.3,0,0,1,2.2-.3A4.8,4.8,0,0,1,148.4,9.7Zm-2.1,8.4a3.2,3.2,0,0,0,.9-2.3v-.7h-.5l-2.9.2a2,2,0,0,0-1.4.6,1.3,1.3,0,0,0-.5,1.1,1.8,1.8,0,0,0,.7,1.5,2.5,2.5,0,0,0,1.5.5A2.9,2.9,0,0,0,146.3,18.1Z" fill="#dce0d1"/><path d="M159.8,9.6a1.9,1.9,0,0,1-.2.8,1.3,1.3,0,0,1-1,.3h-.7a2.9,2.9,0,0,0-2.2,1,3.8,3.8,0,0,0-.8,2.3v5.5a1.2,1.2,0,0,1-.3.9,1.4,1.4,0,0,1-.9.3,1.1,1.1,0,0,1-1.2-1.2V9.8a1.2,1.2,0,0,1,.3-.9,1.2,1.2,0,0,1,.9-.3,1,1,0,0,1,1.1,1.1v1.2a3.7,3.7,0,0,1,1.4-1.6,5.8,5.8,0,0,1,2.1-.7h.4A.9.9,0,0,1,159.8,9.6Z" fill="#dce0d1"/><path d="M170.5,8.8l.6-.2a1,1,0,0,1,1.1,1.1.6.6,0,0,1-.1.4l-6.7,14.3a1.3,1.3,0,0,1-.4.6h-.6l-.8-.2a1.2,1.2,0,0,1-.4-.8,1.7,1.7,0,0,1,.2-.5l1.6-3.5-4.6-10c-.1-.1-.1-.2-.1-.4a.9.9,0,0,1,.4-.8,1.1,1.1,0,0,1,.8-.3,1.1,1.1,0,0,1,1.1.7l3.7,8.3,3.8-8.3A1,1,0,0,1,170.5,8.8Z" fill="#dce0d1"/></svg>