<svg xmlns="http://www.w3.org/2000/svg" viewBox="0 0 192.4 24.7" width="192.4" height="24.7"><path fill="#f9f6f2" d="M3.9 19.4a6.9 6.9 0 0 1-3.1-1.5 1.7 1.7 0 0 1-.6-.6 2 2 0 0 1-.2-.9 2.1 2.1 0 0 1 .5-1.2 1.4 1.4 0 0 1 .9-.5H2l.7.3a8.6 8.6 0 0 0 2.4 1.2 7.7 7.7 0 0 0 2.7.4 5.5 5.5 0 0 0 2.8-.6 2 2 0 0 0 .9-1.8 1.6 1.6 0 0 0-.8-1.3 10 10 0 0 0-3.2-1 19.9 19.9 0 0 1-4.1-1.3 5.1 5.1 0 0 1-2.2-1.8 5 5 0 0 1-.7-2.7 4.8 4.8 0 0 1 1-3.1A5.9 5.9 0 0 1 4.2.8a10.6 10.6 0 0 1 4-.8 10.5 10.5 0 0 1 6.5 2l.6.6a2.4 2.4 0 0 1 .2.9 2.1 2.1 0 0 1-.5 1.2 1.4 1.4 0 0 1-1 .5h-.5l-.7-.3a10.8 10.8 0 0 0-2.1-1.1 8.6 8.6 0 0 0-2.4-.4 5.4 5.4 0 0 0-2.7.7 2 2 0 0 0-.9 1.8 1.5 1.5 0 0 0 .3 1 3.2 3.2 0 0 0 1.3.8l2.4.7a12.6 12.6 0 0 1 5.4 2.1 4.5 4.5 0 0 1 1.7 3.6 5.7 5.7 0 0 1-1 3.1 6.7 6.7 0 0 1-2.8 2 10.4 10.4 0 0 1-4.1.7 16.8 16.8 0 0 1-4-.5zm14.7-.1a1.7 1.7 0 0 1-.6-1.4V2.1a1.8 1.8 0 0 1 .6-1.5 2.5 2.5 0 0 1 3 0 1.8 1.8 0 0 1 .6 1.5v15.8a1.7 1.7 0 0 1-.6 1.4 2 2 0 0 1-1.5.5 2 2 0 0 1-1.5-.5zm9-.3a7.2 7.2 0 0 1-2.5-2.4 7.6 7.6 0 0 1-.8-3.8 7.5 7.5 0 0 1 .8-3.7 5.8 5.8 0 0 1 2.5-2.4 8.5 8.5 0 0 1 7.6 0 5.3 5.3 0 0 1 2.5 2.4 7.5 7.5 0 0 1 .9 3.7 7.6 7.6 0 0 1-.9 3.8 6.4 6.4 0 0 1-2.5 2.4 8.5 8.5 0 0 1-7.6 0zm6.8-6.2a4.2 4.2 0 0 0-.8-2.9 2.7 2.7 0 0 0-2.2-.9c-2 0-3 1.2-3 3.8s1 3.9 3 3.9 3-1.3 3-3.9zm14.8 4.4a1.2 1.2 0 0 1 .4 1 1.5 1.5 0 0 1-.6 1.3 5 5 0 0 1-1.9.3h-.7c-3.2-.2-4.8-1.9-4.8-5V9.3h-1.1a2.6 2.6 0 0 1-1.4-.4 1.7 1.7 0 0 1 0-2.4 2.6 2.6 0 0 1 1.4-.4h1.1V4a1.6 1.6 0 0 1 .5-1.4 2 2 0 0 1 1.5-.6 2.1 2.1 0 0 1 1.6.6 2 2 0 0 1 .5 1.4v2.1h1.9c1.3 0 1.9.6 1.9 1.6a1.3 1.3 0 0 1-.5 1.2 2.3 2.3 0 0 1-1.4.4h-1.9V15a1.7 1.7 0 0 0 .4 1.3 1.8 1.8 0 0 0 1.1.4h.8a2.1 2.1 0 0 1 1.2.5zm14.7-5.7v6.4a2.2 2.2 0 0 1-.5 1.4 2.5 2.5 0 0 1-1.6.5 2.5 2.5 0 0 1-1.5-.5 2.2 2.2 0 0 1-.5-1.4v-6.4a2.6 2.6 0 0 0-.5-1.8 2.1 2.1 0 0 0-1.6-.6 2.5 2.5 0 0 0-2.1.8 3.1 3.1 0 0 0-.8 2.2v5.8a2.2 2.2 0 0 1-.5 1.4 2.5 2.5 0 0 1-1.5.5 2.5 2.5 0 0 1-1.6-.5 2.2 2.2 0 0 1-.5-1.4V2a1.8 1.8 0 0 1 .6-1.4 2.3 2.3 0 0 1 1.5-.5 2.5 2.5 0 0 1 1.5.5 1.9 1.9 0 0 1 .5 1.3v6a4 4 0 0 1 1.9-1.5 5.1 5.1 0 0 1 2.5-.6c3.2 0 4.7 1.9 4.7 5.7z"/><path fill="#dce0d1" d="M76.8 19.3a10.7 10.7 0 0 1-3-1.7 1.3 1.3 0 0 1-.4-1 1.1 1.1 0 0 1 .2-.6c.2-.2.3-.3.5-.3a1.3 1.3 0 0 1 .8.3 9.2 9.2 0 0 0 5.8 1.9 6.5 6.5 0 0 0 3.7-.9 2.9 2.9 0 0 0 1.2-2.5 2.1 2.1 0 0 0-.6-1.6 4.9 4.9 0 0 0-1.6-1l-2.6-.7a18.5 18.5 0 0 1-3.7-1.1 6 6 0 0 1-2.4-1.6 4.6 4.6 0 0 1-.9-2.9 5 5 0 0 1 .9-2.9 7.1 7.1 0 0 1 2.5-2 10.6 10.6 0 0 1 3.7-.7 10.5 10.5 0 0 1 3.6.6 8.8 8.8 0 0 1 2.8 1.7 1.3 1.3 0 0 1 .4 1 1.9 1.9 0 0 1-.2.7c-.1.2-.3.2-.5.2l-.8-.3a11.7 11.7 0 0 0-2.5-1.5 7.9 7.9 0 0 0-2.8-.4 6.4 6.4 0 0 0-3.6.9 3.2 3.2 0 0 0-1.2 2.7 2.7 2.7 0 0 0 1.1 2.2A11.8 11.8 0 0 0 80.6 9l4 1.1a6.3 6.3 0 0 1 2.3 1.6 3.6 3.6 0 0 1 1 2.7 5 5 0 0 1-.9 2.9 6.2 6.2 0 0 1-2.5 1.9 10.6 10.6 0 0 1-3.7.7 13.4 13.4 0 0 1-4-.6zm24.5-8.1v7.5a1.1 1.1 0 1 1-2.2 0v-1.3a4 4 0 0 1-1.6 1.8 5.1 5.1 0 0 1-2.5.6 4.9 4.9 0 0 1-2.4-.5 3.7 3.7 0 0 1-2.3-3.5 3.6 3.6 0 0 1 .7-2.4 6.3 6.3 0 0 1 2.6-1.2 31 31 0 0 1 4.9-.3h.6V11a3.7 3.7 0 0 0-.7-2.5 2.8 2.8 0 0 0-2.2-.7 8 8 0 0 0-3.8 1l-1 .5-.6-.3a1.4 1.4 0 0 1-.2-.6 1.4 1.4 0 0 1 .2-.7l.8-.6a11.2 11.2 0 0 1 2.2-.9l2.4-.3c3.4 0 5.1 1.8 5.1 5.3zM98 17a4.2 4.2 0 0 0 1.1-2.9v-.8h-.5l-3.7.2a3.8 3.8 0 0 0-1.8.7 1.6 1.6 0 0 0-.5 1.4 2.4 2.4 0 0 0 .7 1.8 2.9 2.9 0 0 0 2 .7A3.7 3.7 0 0 0 98 17zm18.4-5.8v7.5a1.1 1.1 0 0 1-.3.8 1 1 0 0 1-.8.3 1 1 0 0 1-1.1-1.1v-7.3a5 5 0 0 0-.7-2.8 3.3 3.3 0 0 0-2.4-.8 4 4 0 0 0-2.9 1.1 4.5 4.5 0 0 0-1.1 3.1v6.7a1 1 0 0 1-1.1 1.1 1 1 0 0 1-.8-.3 1.1 1.1 0 0 1-.3-.8V7.1A1 1 0 0 1 106 6a1.1 1.1 0 0 1 .8.3 1 1 0 0 1 .3.8v1.4a3.7 3.7 0 0 1 1.8-1.9 5 5 0 0 1 2.7-.7c3.2 0 4.8 1.8 4.8 5.3zm5.8 7.8a6.4 6.4 0 0 1-2.2-2.4 8.7 8.7 0 0 1-.8-3.7 8.3 8.3 0 0 1 .8-3.6 6.2 6.2 0 0 1 2.3-2.5 6.4 6.4 0 0 1 3.4-.9 6.9 6.9 0 0 1 2 .3 5.1 5.1 0 0 1 1.8.9 1.4 1.4 0 0 1 .7.6.8.8 0 0 1 .2.7c0 .3 0 .5-.2.6a.5.5 0 0 1-.5.3h-.4l-.4-.2-.2-.2-1.4-.7a3.3 3.3 0 0 0-1.5-.3 3.7 3.7 0 0 0-3.2 1.4 5.8 5.8 0 0 0-1.1 3.7 5.9 5.9 0 0 0 1.1 3.8 3.9 3.9 0 0 0 3.2 1.3 4.1 4.1 0 0 0 1.6-.3l1.3-.7c.2-.1.4-.3.6-.3l.5-.2a.5.5 0 0 1 .5.3.8.8 0 0 1 .2.6 1.1 1.1 0 0 1-.2.6 2.3 2.3 0 0 1-.7.7 6.8 6.8 0 0 1-1.9.8 7.8 7.8 0 0 1-2.2.3 6.2 6.2 0 0 1-3.3-.9zm17.7-.1a.8.8 0 0 1-.3.7 1.8 1.8 0 0 1-1.1.2h-.7a4.6 4.6 0 0 1-3.3-1.3 5 5 0 0 1-1-3.5V8h-1.8l-.8-.2a.7.7 0 0 1-.2-.6.8.8 0 0 1 .2-.7c.2-.2.4-.2.8-.2h1.8V3.1a1 1 0 0 1 1.1-1.1 1 1 0 0 1 .8.3 1.1 1.1 0 0 1 .3.8v3.2h3.1a.7.7 0 0 1 .9.9.7.7 0 0 1-.2.6l-.7.2h-3.1v7a3.2 3.2 0 0 0 .6 2.2 3 3 0 0 0 1.9.8h.7c.7.1 1 .4 1 .9zm12.7-12.6a1 1 0 0 1 .3.8v11.6a1.1 1.1 0 0 1-.3.8 1 1 0 0 1-.8.3 1.1 1.1 0 0 1-.8-.3 1 1 0 0 1-.3-.8v-1.3a4.2 4.2 0 0 1-1.7 1.8 5.5 5.5 0 0 1-2.6.6 4.5 4.5 0 0 1-3.6-1.3 5.7 5.7 0 0 1-1.2-3.9V7.1a1 1 0 0 1 .3-.8 1.1 1.1 0 0 1 .8-.3 1 1 0 0 1 1.1 1.1v7.4a3.7 3.7 0 0 0 .7 2.6 2.9 2.9 0 0 0 2.3.9 3.5 3.5 0 0 0 2.8-1.2 4.1 4.1 0 0 0 1.1-3V7.1a1 1 0 0 1 .3-.8 1.1 1.1 0 0 1 .8-.3 1 1 0 0 1 .8.3zm14.5 4.9v7.5a1.1 1.1 0 0 1-.3.8 1 1 0 0 1-.8.3 1 1 0 0 1-1.1-1.1v-1.3a3.1 3.1 0 0 1-1.6 1.8 5.5 5.5 0 0 1-4.8.1 3.9 3.9 0 0 1-1.7-1.4 3.3 3.3 0 0 1-.7-2.1 3.6 3.6 0 0 1 .8-2.4 5.8 5.8 0 0 1 2.5-1.2 31 31 0 0 1 4.9-.3h.6V11a4.4 4.4 0 0 0-.6-2.5 2.9 2.9 0 0 0-2.2-.7 7.7 7.7 0 0 0-3.8 1l-1.1.5a.5.5 0 0 1-.5-.3.7.7 0 0 1-.2-.6.8.8 0 0 1 .2-.7l.8-.6a10.2 10.2 0 0 1 2.1-.9l2.5-.3c3.3 0 5 1.8 5 5.3zm-3.2 5.8a4.1 4.1 0 0 0 1-2.9v-.8h-.5l-3.6.2a3 3 0 0 0-1.8.7 1.7 1.7 0 0 0-.6 1.4 2.5 2.5 0 0 0 .8 1.8 2.7 2.7 0 0 0 2 .7 3.7 3.7 0 0 0 2.7-1.1zm14.6-10.1a1.4 1.4 0 0 1-.2.7 1.2 1.2 0 0 1-.9.3h-.8a3.9 3.9 0 0 0-2.8 1.3 4.4 4.4 0 0 0-.9 2.7v6.7a1 1 0 0 1-1.1 1.1 1 1 0 0 1-1.1-1.1V7.1a1 1 0 0 1 .3-.8 1.3 1.3 0 0 1 .8-.3 1.1 1.1 0 0 1 .8.3 1 1 0 0 1 .3.8v1.5a4.9 4.9 0 0 1 1.6-1.9A6.1 6.1 0 0 1 177 6h.3q1.2-.2 1.2.9zm12.9-.9a.9.9 0 0 1 .7.3.8.8 0 0 1 .4.7v.4l-7.8 16.7a.8.8 0 0 1-.4.4c-.1.2-.3.2-.5.2l-.7-.2a1.1 1.1 0 0 1-.2-1.2l1.9-4.1-5.5-11.8V7a1 1 0 0 1 .4-.7 1.3 1.3 0 0 1 .8-.3h.6l.4.5 4.5 10.3 4.6-10.2a1 1 0 0 1 .8-.6z"/></svg>